<svg width="72" height="25" viewBox="0 0 72 25" fill="none" xmlns="http://www.w3.org/2000/svg">
<path d="M5.65999 20.94C5.65999 21.636 5.73199 22.14 5.87599 22.452C6.01999 22.764 6.28399 22.98 6.66799 23.1C7.05199 23.196 7.67599 23.244 8.53999 23.244H12.464C13.832 23.244 14.924 22.824 15.74 21.984C16.556 21.144 17.096 19.98 17.36 18.492C17.36 18.42 17.42 18.396 17.54 18.42C17.684 18.42 17.756 18.456 17.756 18.528C17.54 20.52 17.432 22.164 17.432 23.46C17.432 23.652 17.396 23.796 17.324 23.892C17.252 23.964 17.108 24 16.892 24H0.259988C0.211988 24 0.187988 23.928 0.187988 23.784C0.187988 23.64 0.211988 23.568 0.259988 23.568C1.17199 23.568 1.83199 23.508 2.23999 23.388C2.67199 23.268 2.95999 23.04 3.10399 22.704C3.24799 22.344 3.31999 21.804 3.31999 21.084V4.416C3.31999 3.696 3.24799 3.168 3.10399 2.832C2.95999 2.496 2.67199 2.268 2.23999 2.148C1.83199 2.004 1.17199 1.932 0.259988 1.932C0.211988 1.932 0.187988 1.86 0.187988 1.716C0.187988 1.572 0.211988 1.5 0.259988 1.5L2.02399 1.536C3.03199 1.584 3.84799 1.608 4.47199 1.608C5.14399 1.608 5.98399 1.584 6.99199 1.536L8.71999 1.5C8.79199 1.5 8.82799 1.572 8.82799 1.716C8.82799 1.86 8.79199 1.932 8.71999 1.932C7.83199 1.932 7.17199 2.004 6.73999 2.148C6.30799 2.268 6.01999 2.508 5.87599 2.868C5.73199 3.204 5.65999 3.732 5.65999 4.452V20.94Z" fill="black"/>
<path d="M38.7873 5.46C38.7873 3.108 37.7433 1.932 35.6553 1.932C35.5833 1.932 35.5473 1.86 35.5473 1.716C35.5473 1.572 35.5833 1.5 35.6553 1.5L37.2033 1.536C38.0673 1.584 38.7513 1.608 39.2553 1.608C39.6633 1.608 40.2513 1.584 41.0193 1.536L42.5313 1.5C42.5793 1.5 42.6033 1.572 42.6033 1.716C42.6033 1.86 42.5793 1.932 42.5313 1.932C40.6113 1.932 39.6513 3.108 39.6513 5.46V15.684C39.6513 18.444 38.8833 20.604 37.3473 22.164C35.8113 23.7 33.7473 24.468 31.1553 24.468C29.3793 24.468 27.8193 24.12 26.4753 23.424C25.1553 22.728 24.1233 21.744 23.3793 20.472C22.6593 19.176 22.2993 17.664 22.2993 15.936V4.416C22.2993 3.696 22.2273 3.168 22.0833 2.832C21.9393 2.496 21.6513 2.268 21.2193 2.148C20.8113 2.004 20.1513 1.932 19.2393 1.932C19.1913 1.932 19.1673 1.86 19.1673 1.716C19.1673 1.572 19.1913 1.5 19.2393 1.5L21.0033 1.536C22.0113 1.584 22.8273 1.608 23.4513 1.608C24.0993 1.608 24.9513 1.584 26.0073 1.536L27.6633 1.5C27.7353 1.5 27.7713 1.572 27.7713 1.716C27.7713 1.86 27.7353 1.932 27.6633 1.932C26.7753 1.932 26.1153 2.004 25.6833 2.148C25.2753 2.292 24.9993 2.544 24.8553 2.904C24.7113 3.24 24.6393 3.768 24.6393 4.488V14.676C24.6393 17.508 25.2753 19.668 26.5473 21.156C27.8193 22.644 29.6193 23.388 31.9473 23.388C34.1073 23.388 35.7873 22.716 36.9873 21.372C38.1873 20.004 38.7873 18.12 38.7873 15.72V5.46Z" fill="black"/>
<path d="M43.118 24C43.07 24 43.046 23.928 43.046 23.784C43.046 23.64 43.07 23.568 43.118 23.568C43.766 23.568 44.234 23.52 44.522 23.424C44.81 23.328 44.954 23.172 44.954 22.956C44.954 22.74 44.846 22.476 44.63 22.164L33.038 4.56C32.414 3.6 31.79 2.928 31.166 2.544C30.566 2.136 29.846 1.932 29.006 1.932C28.958 1.932 28.934 1.86 28.934 1.716C28.934 1.572 28.958 1.5 29.006 1.5L30.374 1.536C30.998 1.584 31.454 1.608 31.742 1.608C32.558 1.608 33.542 1.584 34.694 1.536L36.566 1.5C36.638 1.5 36.674 1.572 36.674 1.716C36.674 1.86 36.638 1.932 36.566 1.932C35.942 1.932 35.474 1.98 35.162 2.076C34.874 2.172 34.73 2.34 34.73 2.58C34.73 2.772 34.838 3.036 35.054 3.372L46.718 21.012C47.342 21.948 47.978 22.608 48.626 22.992C49.298 23.376 50.126 23.568 51.11 23.568C51.158 23.568 51.182 23.64 51.182 23.784C51.182 23.928 51.158 24 51.11 24C50.486 24 49.994 23.988 49.634 23.964L47.654 23.928L44.882 23.964C44.45 23.988 43.862 24 43.118 24ZM28.862 24C28.79 24 28.754 23.928 28.754 23.784C28.754 23.64 28.79 23.568 28.862 23.568C30.518 23.568 32.15 22.476 33.758 20.292L39.194 12.84L39.626 13.236L34.55 20.328C33.998 21.144 33.722 21.804 33.722 22.308C33.722 23.148 34.43 23.568 35.846 23.568C35.918 23.568 35.954 23.64 35.954 23.784C35.954 23.928 35.918 24 35.846 24C35.126 24 34.574 23.988 34.19 23.964L31.706 23.928L30.194 23.964C29.93 23.988 29.486 24 28.862 24ZM39.734 12.3L44.594 5.424C45.242 4.512 45.566 3.768 45.566 3.192C45.566 2.352 44.894 1.932 43.55 1.932C43.478 1.932 43.442 1.86 43.442 1.716C43.442 1.572 43.478 1.5 43.55 1.5L45.17 1.536C46.082 1.584 46.91 1.608 47.654 1.608C48.086 1.608 48.59 1.584 49.166 1.536L50.498 1.5C50.57 1.5 50.606 1.572 50.606 1.716C50.606 1.86 50.57 1.932 50.498 1.932C49.706 1.932 48.878 2.232 48.014 2.832C47.15 3.432 46.286 4.32 45.422 5.496L40.202 12.66L39.734 12.3Z" fill="#E61515"/>
<path d="M68.0424 2.184C68.0424 2.136 67.9464 2.112 67.7544 2.112C63.4584 2.112 60.5304 2.184 58.9704 2.328C57.4104 2.448 56.3184 2.76 55.6944 3.264C55.0944 3.768 54.5424 4.716 54.0384 6.108C54.0384 6.156 53.9904 6.18 53.8944 6.18C53.8224 6.18 53.7504 6.168 53.6784 6.144C53.6064 6.096 53.5824 6.06 53.6064 6.036L55.0464 0.420002C55.0464 0.396003 55.0944 0.384003 55.1904 0.384003C55.4304 0.384003 55.5264 0.420002 55.4784 0.492001C55.4544 0.564002 55.4424 0.660002 55.4424 0.780002C55.4424 1.068 55.5744 1.26 55.8384 1.356C56.1264 1.452 56.6904 1.5 57.5304 1.5H70.6704C70.7664 1.5 70.8384 1.56 70.8864 1.68C70.9584 1.776 70.9704 1.872 70.9224 1.968L56.8824 23.028L56.7744 23.244C56.7744 23.292 56.8704 23.316 57.0624 23.316H66.2424C67.8504 23.316 69.0744 22.98 69.9144 22.308C70.7544 21.636 71.3064 20.58 71.5704 19.14C71.5944 19.092 71.6664 19.068 71.7864 19.068C71.9064 19.068 71.9664 19.092 71.9664 19.14L71.4624 23.712C71.4624 23.784 71.4264 23.868 71.3544 23.964C71.3064 24.036 71.2344 24.072 71.1384 24.072C67.5624 24.024 61.8264 24 53.9304 24C53.8104 24 53.7264 23.952 53.6784 23.856C53.6304 23.736 53.6424 23.628 53.7144 23.532L67.9344 2.4L68.0424 2.184Z" fill="#E61515"/>
</svg>
