<svg width="1440" height="211" viewBox="0 0 1440 211" fill="none" xmlns="http://www.w3.org/2000/svg">
<path d="M0 0L34.344 9.84666C68.616 19.6054 137.304 39.2988 205.776 47.7388C274.32 56.2667 342.72 53.6292 411.264 43.6946C479.736 33.6721 548.424 16.4404 617.04 25.2321C685.656 34.0237 754.344 68.8388 822.96 88.5321C891.576 108.138 960.264 112.533 1028.74 103.566C1097.28 94.6862 1165.68 72.3554 1234.22 68.575C1302.7 64.7946 1371.38 79.3888 1405.66 86.7738L1440 94.0708V211H1405.66C1371.38 211 1302.7 211 1234.22 211C1165.68 211 1097.28 211 1028.74 211C960.264 211 891.576 211 822.96 211C754.344 211 685.656 211 617.04 211C548.424 211 479.736 211 411.264 211C342.72 211 274.32 211 205.776 211C137.304 211 68.616 211 34.344 211H0V0Z" fill="white"/>
</svg>
